<!-- Generated by IcoMoon.io -->
<svg version="1.1" xmlns="http://www.w3.org/2000/svg" width="512" height="512" viewBox="0 0 512 512">
<title></title>
<g id="icomoon-ignore">
</g>
<path d="M426.655 0h-341.31c-46.94 0-85.345 38.392-85.345 85.329v341.328c0 46.938 38.405 85.343 85.345 85.343h341.311c46.969 0 85.344-38.405 85.344-85.343v-341.328c0-46.937-38.375-85.329-85.345-85.329zM128 128h256c4.569 0 9.002 0.981 13.072 2.831l-141.072 164.584-141.072-164.585c4.070-1.848 8.503-2.83 13.072-2.83zM96 352v-192c0-0.67 0.028-1.336 0.070-2l93.832 109.47-92.799 92.8c-0.722-2.669-1.103-5.443-1.103-8.27zM384 384h-256c-2.827 0-5.601-0.381-8.27-1.103l91.059-91.059 45.211 52.748 45.212-52.747 91.058 91.059c-2.67 0.721-5.443 1.102-8.27 1.102zM416 352c0 2.827-0.381 5.6-1.103 8.27l-92.799-92.799 93.832-109.471c0.042 0.664 0.070 1.33 0.070 2v192z"></path>
</svg>
